<svg width="148" height="60" viewBox="0 0 148 60" fill="none" xmlns="http://www.w3.org/2000/svg">
<g clip-path="url(#clip0_37_2874)">
<g clip-path="url(#clip1_37_2874)">
<path d="M33.1551 47.8225C32.7759 47.4996 32.3464 47.2408 31.8837 47.0565C31.4201 46.8681 30.9242 46.7716 30.4238 46.7725C30.2217 46.7737 30.0208 46.8019 29.8263 46.8562C29.6258 46.9115 29.4347 46.9965 29.2594 47.1084C29.0898 47.2151 28.9433 47.3544 28.8282 47.5184C28.7139 47.6889 28.6554 47.8906 28.6608 48.0958C28.6533 48.3107 28.7199 48.5217 28.8495 48.6934C28.9791 48.859 29.1351 49.0022 29.3113 49.1172C29.4955 49.2371 29.6927 49.3356 29.8993 49.4106C30.1112 49.4876 30.3073 49.554 30.4874 49.6098L31.5372 49.9276C32.0624 50.0879 32.5745 50.288 33.0692 50.5262C33.524 50.742 33.942 51.028 34.3078 51.3738C34.6624 51.7164 34.9446 52.1268 35.1374 52.5806C35.3514 53.1106 35.4549 53.6788 35.4415 54.2503C35.4411 55.0362 35.3243 55.8178 35.095 56.5695C34.8658 57.3299 34.4168 58.0056 33.8045 58.5115C33.1864 59.0375 32.4644 59.4273 31.6856 59.6557C30.9157 59.8847 30.1168 60.0014 29.3135 60.0022C28.3182 60.0045 27.3291 59.8449 26.385 59.5296C25.4457 59.2181 24.5577 58.7689 23.7501 58.1968L25.5142 54.8796C26.0291 55.3259 26.5924 55.7133 27.1934 56.0345C27.8003 56.3578 28.4785 56.5238 29.1662 56.5176C29.4072 56.517 29.6473 56.4853 29.8803 56.4233C30.1081 56.3644 30.3246 56.2685 30.5212 56.1393C30.7108 56.0121 30.8689 55.8433 30.9832 55.6456C31.1065 55.4248 31.1679 55.1748 31.1611 54.922C31.1704 54.6524 31.0764 54.3894 30.8985 54.1867C30.7125 53.9824 30.4923 53.8121 30.2479 53.6835C29.9875 53.543 29.713 53.4304 29.429 53.3476C29.1418 53.2629 28.8865 53.1866 28.6629 53.1167C28.0187 52.9344 27.4343 52.7419 26.9095 52.5392C26.4171 52.3549 25.9593 52.0888 25.5555 51.7521C25.1713 51.422 24.8726 51.004 24.6846 50.5337C24.4812 50.0442 24.3795 49.4145 24.3795 48.6446C24.37 47.8968 24.5094 47.1545 24.7895 46.4611C25.0453 45.8279 25.4316 45.2557 25.9232 44.7818C26.4187 44.3119 27.0044 43.9475 27.6448 43.7107C28.3471 43.452 29.0907 43.3239 29.839 43.3324C30.257 43.3346 30.6744 43.3661 31.0881 43.4267C31.5263 43.49 31.9606 43.5777 32.3891 43.6895C32.8164 43.802 33.2371 43.9389 33.6488 44.0995C34.0421 44.2493 34.4244 44.4264 34.793 44.6292L33.1551 47.8225Z" fill="white"/>
<path d="M48.7166 49.061C48.3084 48.4968 47.7608 48.0482 47.1274 47.7589C46.4925 47.4656 45.801 47.3152 45.1017 47.3182C44.5108 47.3105 43.9247 47.4248 43.38 47.654C42.8753 47.8689 42.4213 48.1873 42.0472 48.5885C41.6719 48.9934 41.3793 49.4677 41.1859 49.9848C40.7804 51.1004 40.7804 52.3231 41.1859 53.4387C41.3778 53.9462 41.6745 54.4075 42.0567 54.7927C42.4447 55.1771 42.9053 55.4804 43.4118 55.6848C43.9687 55.908 44.5643 56.0185 45.1642 56.01C45.8408 56.009 46.5084 55.8547 47.1168 55.5587C47.7335 55.2694 48.2794 54.8489 48.7166 54.3266V59.2605C48.0315 59.4724 47.4155 59.6472 46.8688 59.785C46.2853 59.93 45.6859 60.0012 45.0847 59.9969C43.9969 60 42.9184 59.7969 41.9063 59.3983C40.8868 58.997 39.9506 58.41 39.1453 57.6671C38.3044 56.9264 37.6437 56.0035 37.2139 54.9686C36.7996 53.9237 36.5927 52.8082 36.6047 51.6842C36.6013 50.6126 36.8046 49.5503 37.2033 48.5556C37.6024 47.5632 38.1907 46.6578 38.9355 45.89C39.7241 45.089 40.6622 44.4504 41.6966 44.0105C42.7263 43.5613 43.8374 43.3291 44.9607 43.3282C45.607 43.326 46.2513 43.3971 46.8816 43.5401C47.5088 43.6862 48.1231 43.8829 48.7187 44.1281L48.7166 49.061Z" fill="white"/>
<path d="M55.2854 56.8289L54.1941 59.5835H49.827L55.9158 43.7539H60.409L66.3706 59.5835H61.9813L60.9525 56.8289H55.2854ZM58.1619 48.6413H58.1205L56.419 53.6801H59.8411L58.1619 48.6413Z" fill="white"/>
<path d="M67.6494 43.75H71.7644L79.3014 53.4283H79.3439V43.75H83.4578V59.5796H79.3439L71.8068 49.8769H71.7644V59.5764H67.6494V43.75Z" fill="white"/>
<path d="M86.1457 43.75H90.2607L97.7977 53.4283H97.8391V43.75H101.954V59.5796H97.8391L90.3019 49.8769H90.2607V59.5764H86.1457V43.75Z" fill="white"/>
<path d="M108.757 47.2346V49.8833H113.396V53.3679H108.757V56.0971H113.648V59.5828H104.643V43.75H113.648V47.2346H108.757Z" fill="white"/>
<path d="M129.352 59.5794H124.229L120.345 53.4906H120.303V59.5794H116.188V43.7498H122.34C123.077 43.7437 123.812 43.8389 124.523 44.0327C125.158 44.2028 125.752 44.503 126.266 44.9141C126.764 45.3247 127.16 45.8461 127.421 46.4366C127.703 47.0532 127.844 47.7811 127.844 48.6202C127.847 49.1493 127.773 49.6761 127.624 50.184C127.485 50.6672 127.261 51.1221 126.963 51.5274C126.666 51.9294 126.296 52.2717 125.872 52.536C125.416 52.8164 124.909 53.0054 124.381 53.0922L129.352 59.5794ZM120.303 50.8451H120.702C121.039 50.8454 121.376 50.8245 121.71 50.7826C122.028 50.746 122.337 50.6535 122.623 50.5092C122.895 50.3709 123.126 50.1652 123.295 49.9117C123.47 49.6525 123.558 49.306 123.558 48.8723C123.558 48.4387 123.47 48.0922 123.295 47.833C123.126 47.5792 122.895 47.3731 122.623 47.2344C122.337 47.0906 122.028 46.9981 121.71 46.961C121.376 46.9197 121.039 46.8988 120.702 46.8985H120.303V50.8451Z" fill="white"/>
<path d="M46.8647 1.46826V15.7139H33.01V1.46826H23.4154V29.1014L27.5579 27.7707L33.01 31.3072V23.2531H46.8647V27.1265L56.4593 21.9976V1.46826H46.8647Z" fill="white"/>
<path d="M89.3326 7.68522C88.6039 6.10795 87.5533 4.70051 86.2484 3.55328C84.9174 2.40105 83.3807 1.51067 81.7192 0.928968C79.9592 0.303883 78.1041 -0.0108672 76.2364 -0.00125098C74.0468 -0.00125098 72.0805 0.341306 70.3373 1.02643C68.6671 1.66488 67.1507 2.64909 65.8875 3.91455C64.6349 5.19945 63.6527 6.72268 62.9993 8.394C62.2966 10.14 61.9131 12.0739 61.8488 14.1957H72.4234C72.3261 13.679 72.2768 13.1544 72.2761 12.6287C72.2761 11.3891 72.619 10.3297 73.3049 9.45029C73.9907 8.57093 74.9859 8.13055 76.2904 8.12913C76.8875 8.1237 77.4767 8.26678 78.0047 8.5455C78.522 8.81932 78.9793 9.19356 79.3502 9.6463C79.726 10.105 80.0165 10.6275 80.2074 11.1889C80.4011 11.7477 80.5002 12.335 80.5008 12.9264C80.494 14.6501 80.0476 16.3435 79.204 17.8466C78.4031 19.3364 77.4248 20.7238 76.2904 21.9785L69.2312 29.6576L90.0911 16.7151C90.3653 15.5344 90.4966 14.325 90.4821 13.1129C90.4821 11.1267 90.0989 9.31751 89.3326 7.68522Z" fill="white"/>
<path d="M129.353 1.46826H119.757V15.7139H105.904V1.46826H96.3081V21.2528L105.904 28.2517V23.2531H115.903L129.353 16.5308V1.46826Z" fill="white"/>
<path d="M46.8647 38.3807H56.4593V21.998L46.8647 27.1269V38.3807Z" fill="#FFA100"/>
<path d="M23.4154 29.1017V38.3805H33.01V31.3075L27.5579 27.771L23.4154 29.1017Z" fill="#FFA100"/>
<path d="M69.2259 29.659L61.2078 38.3805H90.873V30.2533H78.7823L84.5098 24.9178C85.4029 24.1241 86.2451 23.2748 87.0313 22.3751C87.7479 21.5516 88.3794 20.6578 88.9161 19.7073C89.4407 18.7694 89.836 17.7647 90.0911 16.7207L69.2259 29.6621V29.659Z" fill="#FFA100"/>
<path d="M96.3081 38.3803H105.904V28.2518L96.3081 21.2529V38.3803Z" fill="#FFA100"/>
<path d="M115.903 23.2531H119.757V38.3802H129.353V16.5308L115.903 23.2531Z" fill="#FFA100"/>
<path d="M0.794597 37.163C0.605474 37.1623 0.422844 37.0943 0.279346 36.9711C0.135847 36.8479 0.0409135 36.6776 0.0115809 36.4908C-0.0177517 36.3039 0.0204432 36.1128 0.119287 35.9515C0.218131 35.7903 0.371131 35.6696 0.550939 35.6109L27.3153 27.0144C27.4274 26.9782 27.5462 26.9675 27.663 26.9831C27.7797 26.9987 27.8915 27.0401 27.9902 27.1044L35.7752 32.1539L56.0853 21.2964C56.2066 21.2317 56.3426 21.1996 56.48 21.2031C56.6174 21.2067 56.7515 21.2457 56.8693 21.3165L69.2206 28.7328L89.6684 16.0478C89.8029 15.9643 89.9592 15.9229 90.1174 15.9287C90.2755 15.9346 90.4283 15.9875 90.5563 16.0806L105.977 27.3301L146.237 7.20754C146.33 7.15997 146.432 7.13138 146.537 7.1234C146.641 7.11542 146.746 7.1282 146.846 7.16103C146.946 7.19387 147.038 7.2461 147.117 7.3147C147.196 7.38331 147.261 7.46692 147.308 7.56074C147.355 7.65457 147.383 7.75676 147.39 7.86138C147.397 7.96601 147.384 8.07102 147.35 8.17035C147.316 8.26969 147.263 8.36138 147.194 8.44016C147.125 8.51894 147.041 8.58323 146.947 8.62934L106.263 28.9712C106.133 29.0362 105.987 29.0641 105.842 29.052C105.696 29.0398 105.557 28.9881 105.44 28.9023L90.0605 17.6836L69.6497 30.3422C69.5257 30.4193 69.3829 30.4606 69.2369 30.4617C69.0909 30.4629 68.9474 30.4237 68.8222 30.3485L56.4423 22.9195L36.1089 33.7727C35.9837 33.8399 35.8427 33.8722 35.7007 33.8662C35.5587 33.8603 35.4208 33.8163 35.3016 33.7388L27.4403 28.6396L1.03619 37.1154C0.958586 37.1436 0.877085 37.1596 0.794597 37.163Z" fill="#00C12B"/>
</g>
</g>
<defs>
<clipPath id="clip0_37_2874">
<rect width="147.385" height="60" fill="white"/>
</clipPath>
<clipPath id="clip1_37_2874">
<rect width="147.385" height="60" fill="white"/>
</clipPath>
</defs>
</svg>
