<svg width="25" height="24" viewBox="0 0 25 24" fill="none" xmlns="http://www.w3.org/2000/svg">
<path d="M9.69263 3.62398C8.30594 5.00872 7.47349 6.85275 7.35211 8.80868C7.23073 10.7646 7.82879 12.6974 9.03363 14.243L3.71563 19.561C3.53347 19.7496 3.43268 20.0022 3.43496 20.2644C3.43724 20.5266 3.5424 20.7774 3.72781 20.9628C3.91322 21.1482 4.16403 21.2534 4.42623 21.2557C4.68843 21.2579 4.94103 21.1571 5.12963 20.975L10.4476 15.657C12.0625 16.9153 14.0965 17.5102 16.1349 17.3204C18.1732 17.1305 20.0624 16.1703 21.4172 14.6355C22.7719 13.1006 23.4901 11.1068 23.4254 9.06065C23.3606 7.01447 22.5177 5.07007 21.0686 3.62398C20.3218 2.87678 19.4351 2.28405 18.4591 1.87964C17.4832 1.47524 16.4371 1.26709 15.3806 1.26709C14.3242 1.26709 13.2781 1.47524 12.3021 1.87964C11.3262 2.28405 10.4395 2.87678 9.69263 3.62398ZM19.6526 5.03798C20.6412 6.02656 21.2564 7.32731 21.3934 8.71861C21.5305 10.1099 21.1809 11.5057 20.4042 12.6681C19.6275 13.8306 18.4718 14.6878 17.134 15.0937C15.7962 15.4996 14.359 15.4291 13.0674 14.8941C11.7757 14.3592 10.7095 13.393 10.0503 12.1601C9.3912 10.9272 9.17993 9.50391 9.45252 8.13271C9.72512 6.7615 10.4647 5.52723 11.5453 4.64018C12.6259 3.75313 13.9806 3.26819 15.3786 3.26798C16.1731 3.26524 16.9601 3.42029 17.6941 3.72413C18.4282 4.02798 19.0946 4.47456 19.6546 5.03798L19.6526 5.03798Z" fill="#0A40AA"/>
</svg>
