<svg width="24" height="25" viewBox="0 0 24 25" fill="none" xmlns="http://www.w3.org/2000/svg">
<path d="M5.37479 12.5667C5.37433 13.8533 5.71093 15.1095 6.35097 16.2169L5.31348 20.0004L9.19 18.9852C10.2581 19.5665 11.4606 19.8734 12.6844 19.8738H12.6876C16.7178 19.8738 19.9983 16.5982 20 12.5724C20.0008 10.6214 19.2408 8.78716 17.8601 7.40692C16.4796 6.02688 14.6436 5.26645 12.6872 5.26553C8.65679 5.26553 5.37635 8.54069 5.37461 12.5667L5.37479 12.5667ZM12.6875 19.8737H12.6875H12.6875C12.6874 19.8737 12.6873 19.8737 12.6875 19.8737Z" fill="#273E4F"/>
<path fill-rule="evenodd" clip-rule="evenodd" d="M10.7955 9.40225C10.6537 9.08742 10.5045 9.08112 10.3696 9.07558C10.2593 9.0709 10.133 9.0712 10.0069 9.0712C9.88067 9.0712 9.67562 9.11852 9.50223 9.30769C9.32868 9.49687 8.83972 9.95417 8.83972 10.8842C8.83972 11.8144 9.51804 12.7131 9.61254 12.8393C9.7072 12.9654 10.9219 14.935 12.8456 15.6927C14.4445 16.3224 14.7698 16.1972 15.1168 16.1656C15.4639 16.1342 16.2367 15.7085 16.3943 15.2671C16.5521 14.8257 16.5521 14.4473 16.5048 14.3683C16.4575 14.2895 16.3312 14.2422 16.142 14.1478C15.9527 14.0532 15.0222 13.5958 14.8487 13.5327C14.6752 13.4697 14.549 13.4383 14.4227 13.6275C14.2966 13.8165 13.9341 14.2422 13.8236 14.3683C13.7132 14.4946 13.6028 14.5104 13.4135 14.4159C13.2242 14.321 12.6146 14.1216 11.8914 13.4777C11.3288 12.9766 10.9489 12.3578 10.8385 12.1685C10.7281 11.9795 10.8267 11.8771 10.9216 11.7829C11.0066 11.6982 11.1109 11.5621 11.2056 11.4518C11.3 11.3414 11.3315 11.2626 11.3946 11.1365C11.4578 11.0104 11.4262 10.9 11.3789 10.8054C11.3315 10.7108 10.9637 9.77601 10.7954 9.40219" fill="white"/>
</svg>
