<svg width="24" height="25" viewBox="0 0 24 25" fill="none" xmlns="http://www.w3.org/2000/svg">
<path fill-rule="evenodd" clip-rule="evenodd" d="M4.1686 12.5269C8.73199 10.5512 11.775 9.24867 13.2975 8.61936C17.6448 6.82254 18.5481 6.51042 19.1368 6.50011C19.2663 6.49784 19.5559 6.52973 19.7434 6.68096C19.9018 6.80866 19.9454 6.98116 19.9662 7.10223C19.9871 7.2233 20.013 7.4991 19.9924 7.7146C19.7568 10.1743 18.7375 16.1433 18.2189 18.8983C17.9995 20.064 17.5674 20.4548 17.1491 20.4931C16.24 20.5762 15.5498 19.8961 14.6693 19.3225C13.2916 18.4251 12.5132 17.8664 11.1759 16.9907C9.63039 15.9786 10.6323 15.4223 11.5131 14.5132C11.7436 14.2753 15.7488 10.6551 15.8264 10.3267C15.8361 10.2856 15.8451 10.1325 15.7535 10.0517C15.662 9.97081 15.5269 9.99846 15.4294 10.0204C15.2912 10.0516 13.0903 11.4972 8.82657 14.3573C8.20184 14.7836 7.63598 14.9913 7.12898 14.9804C6.57006 14.9684 5.49492 14.6664 4.69567 14.4082C3.71535 14.0915 2.93621 13.9241 3.00406 13.3863C3.0394 13.1062 3.42758 12.8197 4.1686 12.5269Z" fill="#273E4F"/>
</svg>
